<svg id="Capa_1" enable-background="new 0 0 512 512" height="512" viewBox="0 0 512 512" width="512" xmlns="http://www.w3.org/2000/svg"><g><path d="m339.867 24.213h-167.734c-7.774 0-15.23 3.088-20.728 8.586l-118.607 118.606c-5.497 5.497-8.586 12.953-8.586 20.728v167.735c0 7.774 3.088 15.23 8.586 20.728l118.606 118.606c5.497 5.497 12.953 8.586 20.728 8.586h167.735c7.774 0 15.23-3.088 20.728-8.586l118.606-118.606c5.497-5.497 8.586-12.953 8.586-20.728v-167.735c0-7.774-3.088-15.23-8.586-20.728l-118.606-118.607c-5.497-5.497-12.953-8.585-20.728-8.585z" fill="#fd4755"/><path d="m360.595 32.798c-5.497-5.497-12.953-8.586-20.728-8.586h-20.669c.601.785 1.201 1.564 1.8 2.334h-.658c14.061 17.268 77.544 98.997 66.17 213.256-15.685 157.559-159.186 231.021-168.483 235.582-9.872 5.114-18.91 9.176-26.742 12.403h148.582c7.775 0 15.231-3.088 20.728-8.586l118.607-118.607c5.497-5.497 8.586-12.953 8.586-20.728v-167.733c0-7.774-3.088-15.23-8.586-20.728z" fill="#fb2b3a"/><path d="m332.303 56.089h-152.606c-4.164 0-8.157 1.654-11.101 4.598l-107.909 107.909c-2.944 2.944-4.598 6.937-4.598 11.101v152.606c0 4.164 1.654 8.157 4.598 11.101l107.909 107.909c2.944 2.944 6.937 4.598 11.101 4.598h152.606c4.164 0 8.157-1.654 11.101-4.598l107.909-107.909c2.944-2.944 4.598-6.937 4.598-11.101v-152.606c0-4.164-1.654-8.157-4.598-11.101l-107.909-107.909c-2.944-2.944-6.937-4.598-11.101-4.598z" fill="#f5f8f9"/><path d="m345.462 62.745c22.311 37.664 48.725 99.951 41.049 177.057-11.402 114.533-90.332 184.614-136.167 216.108h81.959c4.164 0 8.157-1.654 11.101-4.598l107.909-107.909c2.944-2.944 4.598-6.937 4.598-11.101v-152.605c0-4.164-1.654-8.157-4.598-11.101z" fill="#e8edf2"/><path d="m190.606 268.843h130.788c13.795 0 22.437-14.91 15.58-26.88l-65.394-114.164c-6.897-12.041-24.264-12.041-31.161 0l-65.394 114.163c-6.856 11.971 1.786 26.881 15.581 26.881z" fill="#fd4755"/><path d="m336.974 241.963-65.394-114.164c-5.427-9.474-17.332-11.489-25.522-6.054l39.629 69.183c15.933 27.816-4.149 62.462-36.205 62.462h-76.673c1.205 8.342 8.271 15.453 17.797 15.453h130.788c13.795 0 22.437-14.91 15.58-26.88z" fill="#fb2b3a"/><g><g><path d="m256 221.448c-4.268 0-7.726-3.459-7.726-7.726v-48.709c0-4.268 3.459-7.726 7.726-7.726s7.726 3.459 7.726 7.726v48.709c0 4.267-3.458 7.726-7.726 7.726z" fill="#fff"/></g><g><circle cx="256" cy="238.592" fill="#fff" r="7.726"/></g></g><path d="m500.132 456.91h-488.264c-6.554 0-11.868-5.314-11.868-11.868v-100.196c0-6.555 5.314-11.868 11.868-11.868h488.264c6.555 0 11.868 5.314 11.868 11.868v100.196c0 6.554-5.314 11.868-11.868 11.868z" fill="#554e56"/><g fill="#f5f8f9"><path d="m153.145 365.409c-.026-.069-.053-.139-.081-.208-1.392-3.388-4.658-5.576-8.32-5.576-.002 0-.003 0-.004 0-3.665.002-6.931 2.193-8.321 5.585-.024.059-.048.12-.071.181l-21.032 55.225c-1.519 3.987.483 8.452 4.471 9.97.904.345 1.834.508 2.748.508 3.113 0 6.047-1.896 7.221-4.979l3.343-8.778h23.127l3.305 8.757c1.506 3.992 5.965 6.009 9.957 4.5 3.992-1.506 6.007-5.964 4.5-9.957zm-14.162 36.475 5.731-15.048 5.679 15.048z"/><path d="m466.415 366.449c-.041-4.241-3.492-7.652-7.724-7.652-.026 0-.051 0-.076 0-4.268.041-7.693 3.534-7.652 7.801l.308 31.772-24.952-36.132c-1.921-2.783-5.428-3.991-8.658-2.986-3.227 1.006-5.427 3.995-5.427 7.376v55.908c0 4.268 3.459 7.726 7.726 7.726s7.726-3.459 7.726-7.726v-31.124l23.722 34.352c2.243 3.236 5.994 4.609 9.555 3.496 3.629-1.134 5.974-4.514 5.974-8.686z"/><path d="m310.963 358.797c-4.268 0-7.726 3.459-7.726 7.726v56.013c0 4.268 3.459 7.726 7.726 7.726s7.726-3.459 7.726-7.726v-56.013c0-4.267-3.459-7.726-7.726-7.726z"/><path d="m103.401 408.708c-3.27-2.742-8.143-2.313-10.884.959-.464.553-.967 1.072-1.489 1.538-2.686 2.391-6.13 3.605-10.233 3.605-11.183 0-20.281-9.098-20.281-20.281 0-11.182 9.098-20.28 20.281-20.28 4.065 0 7.985 1.196 11.333 3.459 3.535 2.388 8.34 1.458 10.728-2.076 2.388-3.536 1.459-8.339-2.076-10.728-5.913-3.995-12.824-6.107-19.985-6.107-19.703 0-35.733 16.029-35.733 35.732s16.03 35.733 35.733 35.733c7.893 0 14.986-2.599 20.514-7.521 1.084-.966 2.11-2.025 3.051-3.149 2.742-3.27 2.312-8.142-.959-10.884z"/><path d="m228.746 358.797c-4.268 0-7.726 3.459-7.726 7.726v38.503c0 2.629-.749 5.694-6.305 8.492-1.726.869-3.607 1.292-5.745 1.292-.007 0-.015 0-.022 0-2.331-.003-4.352-.571-6.176-1.737-4.347-2.778-5.22-5.123-5.22-8.006v-38.543c0-4.268-3.459-7.726-7.726-7.726s-7.726 3.459-7.726 7.726v38.543c0 8.715 4.156 15.791 12.353 21.028 4.317 2.759 9.187 4.16 14.474 4.168h.043c4.545 0 8.817-.99 12.695-2.943 12.239-6.163 14.809-15.525 14.809-22.294v-38.503c-.001-4.267-3.46-7.726-7.728-7.726z"/><path d="m284.806 359.625h-30.934c-4.268 0-7.726 3.459-7.726 7.726s3.459 7.726 7.726 7.726h7.678v48.288c0 4.268 3.459 7.726 7.726 7.726 4.268 0 7.726-3.459 7.726-7.726v-48.288h7.803c4.268 0 7.726-3.459 7.726-7.726s-3.458-7.726-7.725-7.726z"/><path d="m364.947 359.625c-19.703 0-35.733 16.03-35.733 35.733s16.03 35.733 35.733 35.733 35.733-16.03 35.733-35.733-16.03-35.733-35.733-35.733zm0 56.014c-11.183 0-20.281-9.098-20.281-20.281s9.098-20.281 20.281-20.281 20.281 9.098 20.281 20.281-9.098 20.281-20.281 20.281z"/></g></g></svg>