<?xml version="1.0" encoding="UTF-8" standalone="no"?>
<!DOCTYPE svg PUBLIC "-//W3C//DTD SVG 1.1//EN" "http://www.w3.org/Graphics/SVG/1.1/DTD/svg11.dtd">
<svg version="1.1" xmlns="http://www.w3.org/2000/svg" xmlns:xlink="http://www.w3.org/1999/xlink" preserveAspectRatio="xMidYMid meet" viewBox="0 0 640 640" width="640" height="640"><defs><path d="M586.6 604.44C533.28 604.44 106.71 604.44 53.39 604.44C12.35 604.44 -13.27 559.94 7.2 524.46C33.86 478.23 247.14 108.43 273.8 62.21C294.32 26.64 345.71 26.7 366.2 62.21C383.97 93.02 472.84 247.11 632.8 524.46C629.31 577.78 613.91 604.44 586.6 604.44ZM268.89 480C268.89 508.23 291.77 531.11 320 531.11C348.23 531.11 371.11 508.23 371.11 480C371.11 451.77 348.23 428.89 320 428.89C291.77 428.89 268.89 451.77 268.89 480ZM279.72 396.28C280.1 403.35 285.95 408.89 293.03 408.89C298.42 408.89 341.58 408.89 346.97 408.89C354.05 408.89 359.9 403.35 360.28 396.28C361.11 381.17 367.7 260.28 368.53 245.17C368.94 237.53 362.86 231.11 355.21 231.11C348.17 231.11 291.83 231.11 284.79 231.11C277.14 231.11 271.06 237.53 271.47 245.17C273.12 275.39 278.89 381.17 279.72 396.28Z" id="b2AgY2sLrZ"></path></defs><g><g><g><use xlink:href="#b2AgY2sLrZ" opacity="1" fill="#ffffff" fill-opacity="1"></use><g><use xlink:href="#b2AgY2sLrZ" opacity="1" fill-opacity="0" stroke="#000000" stroke-width="1" stroke-opacity="0"></use></g></g></g></g></svg>