<svg height="512pt" viewBox="-40 0 511 512" width="512pt" xmlns="http://www.w3.org/2000/svg"><path d="m432.164062 209.632812c0-191.261718-167.960937-209.632812-196.40625-209.632812-108.625 0-179.023437 94.339844-179.023437 167.898438v26.722656c-8.914063 11.457031-34.382813 44.203125-46.503906 59.789062-6.273438 8.066406-9.730469 18.136719-9.730469 28.355469 0 19.183594 11.507812 36.1875 29.328125 43.324219l13.988281 5.59375 22.660156 63.445312c11.234376 31.464844 41.234376 52.605469 74.648438 52.605469h23.328125l13.226563 52.90625c1.671874 6.675781 7.671874 11.359375 14.554687 11.359375h192.796875c4.707031 0 9.144531-2.210938 11.976562-5.96875 2.835938-3.753906 3.742188-8.625 2.449219-13.152344l-30.636719-107.230468 49.746094-111.933594c9.023438-20.308594 13.597656-41.867188 13.597656-64.082032zm0 0" fill="#2633d6" fill-rule="evenodd"/><path d="m240.433594 512h144.597656c4.707031 0 9.144531-2.210938 11.976562-5.96875 2.835938-3.753906 3.742188-8.625 2.449219-13.152344l-30.636719-107.230468 49.746094-111.933594c9.027344-20.304688 13.601563-41.867188 13.601563-64.082032-.003907-182.632812-153.148438-207.621093-191.734375-209.503906zm0 0" fill="#141b73"/><path d="m363.507812 148.992188-32.136718-32.132813c-5.835938-5.835937-15.335938-5.875-21.210938 0l-32.132812 32.132813c-5.859375 5.859374-5.859375 15.355468 0 21.214843 5.855468 5.855469 15.355468 5.855469 21.210937 0l6.527344-6.527343v11.984374c0 36.027344-29.308594 65.335938-65.332031 65.335938-36.027344 0-65.335938-29.308594-65.335938-65.335938 0-36.023437 29.308594-65.332031 65.335938-65.332031 8.28125 0 15-6.714843 15-15 0-8.28125-6.71875-15-15-15-52.566406 0-95.335938 42.765625-95.335938 95.332031 0 52.570313 42.769532 95.335938 95.335938 95.335938s95.332031-42.765625 95.332031-95.332031v-11.988281l6.527344 6.527343c5.855469 5.855469 15.351562 5.859375 21.214843 0 5.855469-5.859375 5.855469-15.355469 0-21.214843zm0 0" fill="#fff"/><g fill="#fff16c"><path d="m240.433594 110.332031c8.285156 0 15-6.714843 15-15 0-8.28125-6.714844-15-15-15zm0 0"/><path d="m335.765625 175.667969v-11.988281l6.527344 6.527343c5.855469 5.855469 15.351562 5.859375 21.214843 0 5.855469-5.859375 5.855469-15.355469 0-21.214843l-32.136718-32.132813c-5.835938-5.835937-15.335938-5.875-21.210938 0l-32.132812 32.132813c-5.859375 5.859374-5.859375 15.355468 0 21.214843 5.855468 5.855469 15.355468 5.855469 21.210937 0l6.527344-6.527343v11.984374c0 36.027344-29.308594 65.335938-65.332031 65.335938v30c52.566406 0 95.332031-42.765625 95.332031-95.332031zm0 0"/></g></svg>