<svg id="Capa_1" enable-background="new 0 0 510.449 510.449" height="512" viewBox="0 0 510.449 510.449" width="512" xmlns="http://www.w3.org/2000/svg"><circle cx="255.699" cy="261.224" fill="#fdd33a" r="245"/><path d="m265.699 4.224h-18.5c-8.146 0-14.75 6.604-14.75 14.75v401.556 84.598c7.653.721 15.408 1.096 23.25 1.096 8.355 0 16.611-.421 24.75-1.238v-84.823-401.189c0-8.146-6.604-14.75-14.75-14.75z" fill="#5e5e5e"/><path d="m256.449 186.224v-167.25c0-7.205 5.169-13.195 12-14.484-.892-.168-1.809-.266-2.75-.266h-18.5c-8.146 0-14.75 6.604-14.75 14.75v167.25 29.855 6.067 120.079 29.855 6.067 42.385 84.598c7.653.721 15.408 1.096 23.25 1.096 4.024 0 8.024-.103 12-.296-3.773-.184-7.524-.449-11.25-.8v-84.598-24.34c0-9.938 8.046-18.004 17.984-18.03 2.544-.007 4.629-.015 6.016-.025v-6.083-29.828h-24v-102.035c0-9.938 8.046-18.004 17.984-18.03 2.544-.007 4.629-.015 6.016-.025v-6.083-29.828h-24z" fill="#333"/><path d="m434.941 94.224h-358.485-17.922c-5.224 0-10.283 1.831-14.296 5.176l-36.203 30.169c-10.714 8.928-10.714 25.383 0 34.311l17.121 14.267 19.082 15.901c4.013 3.344 9.072 5.176 14.296 5.176h434.243c-10.396-39.863-30.585-75.764-57.836-105z" fill="#ff3972"/><path d="m502.414 287.569-2.881-2.401-33.322-27.768c-4.013-3.344-9.072-5.176-14.296-5.176h-441.035c-.108 2.988-.182 5.985-.182 9 0 34.073 6.962 66.518 19.531 96h421.685c5.224 0 10.283-1.832 14.296-5.176l24.103-20.086 12.1-10.083c10.714-8.927 10.714-25.382.001-34.31z" fill="#ff3972"/><path d="m486.978 180.224h-376.025c-11.827 0-23.28-4.147-32.367-11.718l-5.552-4.626c-10.714-8.928-10.714-25.383 0-34.311l36.204-30.169c4.013-3.344 9.072-5.176 14.296-5.176h-47.078-17.922c-5.224 0-10.283 1.832-14.296 5.176l-36.203 30.169c-3.109 2.591-5.309 5.817-6.614 9.308-.011.029-.02.057-.031.086-.408 1.106-.727 2.237-.954 3.384-.008.04-.015.08-.022.12-.219 1.134-.35 2.281-.392 3.431-.002.059-.003.117-.005.176-.016.564-.016 1.128.01 1.692v.003c.026.565.077 1.129.146 1.691.01.079.021.158.032.238.072.541.159 1.08.271 1.615.002.012.004.023.006.035.114.543.252 1.081.407 1.616.028.097.058.193.087.289.154.508.323 1.012.514 1.509.008.021.015.043.023.064.198.511.421 1.014.658 1.512.051.107.104.213.156.32.234.473.482.94.752 1.399.013.022.024.045.038.067.281.473.586.934.905 1.389.076.108.153.215.23.322.319.438.65.87 1.005 1.289.012.014.022.028.034.042.364.428.753.841 1.155 1.246.099.1.199.198.3.297.413.401.838.795 1.289 1.171l17.121 14.267 19.082 15.901c4.013 3.344 9.072 5.176 14.296 5.176h65 369.243c-1.68-6.441-3.619-12.777-5.799-19z" fill="#cc175d"/><path d="m508.334 295.224c-1.338 2.853-3.309 5.479-5.92 7.655l-12.1 10.083-24.103 20.086c-4.013 3.344-9.072 5.176-14.296 5.176h-333.866c-25.252 0-46.674-18.625-50.091-43.645-1.489-10.906-2.26-22.04-2.26-33.355 0-3.015.074-6.012.182-9h-54.961-.039c-.108 2.988-.182 5.985-.182 9 0 34.073 6.962 66.518 19.531 96h55 366.685c5.224 0 10.283-1.832 14.296-5.176l24.103-20.086 12.1-10.083c8.102-6.751 10.072-17.805 5.921-26.655z" fill="#cc175d"/><g fill="#333"><circle cx="255.449" cy="112.224" r="8"/><circle cx="255.449" cy="181.224" r="8"/><circle cx="255.449" cy="270.224" r="8"/><circle cx="255.449" cy="339.224" r="8"/></g></svg>