<svg height="512" viewBox="0 0 64 64" width="512" xmlns="http://www.w3.org/2000/svg"><path d="m9 23h46v38h-46z" fill="#d9176c"/><path d="m22 13a9.957 9.957 0 0 0 .838 4h18.324a10 10 0 1 0 -19.162-4z" fill="#f9bb4b"/><path d="m36 9v-2h-3v-2h-2v2h-2a1 1 0 0 0 -1 1v4a1 1 0 0 0 1 1h5v2h-6v2h7a1 1 0 0 0 1-1v-4a1 1 0 0 0 -1-1h-5v-2z" fill="#fcf05a"/><path d="m19 57h16v4h-16z" fill="#f9bb4b"/><path d="m23 57-3-3 12-9 3 3z" fill="#f9bb4b"/><path d="m46 61-15-8 2-3 15 8z" fill="#ffd782"/><path d="m3 17h58v6h-58z" fill="#ad6327"/><path d="m13 27h38v16h-38z" fill="#f4f4e6"/><g fill="#f98c96"><path d="m30 30h-8v2h3v8h2v-8h3z"/><path d="m32 30h2v2h-2z"/><path d="m32 34h2v6h-2z"/><path d="m38 40h-2v-10h4a3 3 0 0 1 0 6h-2zm0-6h2a1 1 0 0 0 0-2h-2z"/></g><path d="m48 40h-4v-2h2v-4h2z" fill="#87cee9"/><path d="m18 36h-2v-6h4v2h-2z" fill="#87cee9"/><path d="m16 38h2v2h-2z" fill="#87cee9"/><path d="m50 46h2v2h-2z" fill="#fcf05a"/><path d="m13 55h2v2h-2z" fill="#fcf05a"/></svg>