<svg id="Layer_1" data-name="Layer 1" xmlns="http://www.w3.org/2000/svg" viewBox="0 -80 700 400"
  fill="none">
  <path
    d="M132.3 253.5C132.3 217.3 102.8 187.9 66.5002 187.9C30.2002 187.9 0.700195 217.3 0.700195 253.5C0.700195 289.7 30.2002 319.1 66.5002 319.1C102.8 319.1 132.3 289.8 132.3 253.5Z"
    stroke="black" stroke-miterlimit="10"></path>
  <path
    d="M124.7 35.6C124.7 16.7 109.3 1.29999 90.3004 1.29999C71.3004 1.29999 55.9004 16.6 55.9004 35.6C55.9004 54.5 71.3004 69.9 90.3004 69.9C109.4 69.9 124.7 54.6 124.7 35.6Z"
    stroke="black" stroke-miterlimit="10"></path>
  <path
    d="M229 134.5C229 124.9 221.2 117.2 211.6 117.2C202 117.2 194.2 125 194.2 134.5C194.2 144.1 202 151.8 211.6 151.8C221.2 151.8 229 144 229 134.5Z"
    stroke="black" stroke-miterlimit="10"></path>
  <path d="M513 230.8H321.7C314.2 230.8 307.1 234.2 302.3 240L283.7 262.9" stroke="black"
    stroke-miterlimit="10"></path>
  <path
    d="M511.5 194.5H241.7C234.3 194.5 227.3 197.8 222.6 203.4L181.2 252.5C176.4 258.1 169.5 261.4 162.1 261.4H78.7002"
    stroke="black" stroke-miterlimit="10"></path>
  <path
    d="M512 153.6H310.4C303.4 153.6 296.8 150.7 292.1 145.6L246.2 96C241.5 90.9 234.8 88 227.9 88H198C192.4 88 186.9 89.9 182.5 93.4L128.8 136"
    stroke="black" stroke-miterlimit="10"></path>
  <path d="M190 89L151.3 44.1C146.6 38.6 139.6 35.4 132.4 35.4H106.9" stroke="black"
    stroke-miterlimit="10"></path>
  <path d="M254 274.6C253.9 284.2 261.5 292 271.1 292.2L271.6 257.6C262 257.4 254.1 265 254 274.6Z"
    fill="black"></path>
  <path d="M270.8 291.7C280.4 291.8 288.3 284.7 288.4 275.1C288.5 265.5 280.9 258.2 271.3 258"
    fill="black"></path>
  <path d="M270.8 291.7C280.4 291.8 288.3 284.7 288.4 275.1C288.5 265.5 280.9 258.2 271.3 258"
    stroke="black" stroke-miterlimit="10"></path>
  <path
    d="M50.8003 247.3C43.4003 253.3 42.2003 264.2 48.3003 271.7L75.2003 249.9C69.1003 242.4 58.2003 241.3 50.8003 247.3Z"
    fill="black"></path>
  <path
    d="M48.4004 271.1C54.4004 278.5 65.0004 280 72.5004 274C79.9004 268 80.8004 257.4 74.7004 250"
    fill="black"></path>
  <path
    d="M48.4004 271.1C54.4004 278.5 65.0004 280 72.5004 274C79.9004 268 80.8004 257.4 74.7004 250"
    stroke="black" stroke-miterlimit="10"></path>
  <path
    d="M114.6 162.8C124.2 162.6 131.8 154.7 131.6 145.2L96.9004 145.8C97.1004 155.4 105 163 114.6 162.8Z"
    fill="black"></path>
  <path d="M131.2 145.4C131 135.8 123.6 128.2 114 128.4C104.4 128.6 97.3002 136.5 97.5002 146"
    fill="black"></path>
  <path d="M131.2 145.4C131 135.8 123.6 128.2 114 128.4C104.4 128.6 97.3002 136.5 97.5002 146"
    stroke="black" stroke-miterlimit="10"></path>
  <path
    d="M77.7004 23C70.8004 29.6 70.6004 40.6 77.3004 47.5L102.2 23.4C95.6004 16.5 84.6004 16.3 77.7004 23Z"
    fill="black"></path>
  <path d="M77.5005 46.9C84.2005 53.8 94.8005 54.3 101.7 47.7C108.6 41.1 108.5 30.4 101.8 23.5"
    fill="black"></path>
  <path d="M77.5005 46.9C84.2005 53.8 94.8005 54.3 101.7 47.7C108.6 41.1 108.5 30.4 101.8 23.5"
    stroke="black" stroke-miterlimit="10"></path>
</svg>